<svg xmlns="http://www.w3.org/2000/svg" width="225" height="154" fill="none"><style>path{fill:#034ad8}@media (prefers-color-scheme:dark){path{fill:#fff}}</style><path fill-rule="evenodd" d="M87.496 126.062c1.068.61 2.21 1.22 3.354 1.753 8.536 3.963 12.5 6.555 12.5 12.042 0 5.869-4.802 10.671-10.67 10.671-4.574 0-8.385-2.897-9.909-6.936-5.564 5.64-13.185 9.146-21.722 9.146-16.843 0-30.486-13.643-30.486-30.487 0-1.6.229-3.201.457-4.801C15.396 112.877 3.354 99.844.61 83.533.229 81.171 0 78.808 0 76.37s.229-4.802.61-7.164C3.43 52.97 15.396 39.86 31.02 35.288l-.029-.2c-.218-1.528-.428-2.995-.428-4.601C30.563 13.643 44.206 0 61.049 0c8.46 0 16.158 3.506 21.722 9.146 1.524-4.04 5.335-6.936 9.908-6.936 5.869 0 10.671 4.802 10.671 10.67 0 5.946-3.964 8.537-12.5 12.5-.846.395-1.65.831-2.474 1.278-.29.158-.582.316-.88.475-.685.381-1.371.762-1.981 1.143-.534.305-.99.61-1.448.915-.153.076-.286.171-.42.267-.133.095-.266.19-.419.266-2.591 1.677-4.954 3.659-7.24 5.717a.744.744 0 0 0-.19.152c-.058.057-.115.114-.191.152-.915.915-1.83 1.83-2.668 2.744a6.858 6.858 0 0 0-.343.381 6.818 6.818 0 0 1-.343.382c-.36.45-.731.887-1.101 1.323-.57.671-1.134 1.337-1.643 2.03-7.088 9.45-11.432 21.264-11.432 33.993a56.172 56.172 0 0 0 11.432 33.992 37.718 37.718 0 0 0 2.744 3.354c.115.114.229.247.343.381.114.133.229.266.343.381.628.742 1.298 1.398 1.98 2.065.228.224.458.449.688.679.076.038.133.095.19.152a.745.745 0 0 0 .19.152c2.287 2.058 4.65 4.04 7.241 5.717.153.076.286.171.42.266.133.096.266.191.419.267.228.153.476.305.724.458.248.152.495.304.724.457.343.19.667.381.99.571.325.191.649.382.992.572Zm105.941-90.469c15.625 4.573 27.667 17.606 30.411 33.916.381 2.287.609 4.726.609 7.622 0 2.439-.228 4.802-.609 7.164-2.82 16.235-14.786 29.344-30.411 33.917l.029.2c.219 1.528.429 2.995.429 4.601 0 16.844-13.643 30.487-30.487 30.487-8.46 0-16.158-3.506-21.722-9.146-1.524 4.039-5.335 6.936-9.908 6.936-5.868 0-10.67-4.802-10.67-10.671 0-5.944 3.963-8.536 12.499-12.499.846-.395 1.65-.831 2.474-1.278.29-.158.582-.316.88-.475.686-.381 1.372-.762 1.982-1.143.533-.305.99-.61 1.448-.915.152-.076.285-.171.419-.267.133-.095.267-.19.419-.266 2.591-1.677 4.954-3.659 7.241-5.717a.744.744 0 0 0 .19-.152c.057-.057.114-.114.191-.153.914-.914 1.829-1.829 2.667-2.743.115-.115.229-.248.343-.381.115-.134.229-.267.343-.381.36-.45.732-.889 1.102-1.324.569-.671 1.134-1.337 1.642-2.03 7.088-9.451 11.432-21.264 11.432-33.993a56.173 56.173 0 0 0-11.432-33.992 37.566 37.566 0 0 0-2.744-3.354c-.114-.114-.228-.247-.343-.38a6.481 6.481 0 0 0-.343-.382 30.393 30.393 0 0 0-2.667-2.744c-.077-.038-.134-.095-.191-.152a.744.744 0 0 0-.19-.153c-2.287-2.057-4.65-3.963-7.241-5.716a3.14 3.14 0 0 1-.419-.266c-.134-.096-.267-.191-.419-.267-.229-.153-.477-.305-.724-.458-.248-.152-.496-.304-.724-.457-.343-.19-.667-.38-.991-.571a45.95 45.95 0 0 0-.991-.572 46.278 46.278 0 0 0-3.354-1.753c-8.46-4.04-12.499-6.63-12.499-12.5 0-5.868 4.802-10.67 10.67-10.67 4.573 0 8.384 2.896 9.908 6.936C147.25 3.81 154.872.305 163.408.305c16.844 0 30.487 13.643 30.487 30.486 0 1.6-.229 3.201-.458 4.802Z" clip-rule="evenodd"/><path d="M145.497 76.674c0-18.368-14.862-33.23-33.23-33.23-18.368 0-33.23 14.862-33.23 33.23 0 18.368 14.862 33.23 33.23 33.23 18.368 0 33.23-14.862 33.23-33.23Z"/></svg>