<svg xmlns="http://www.w3.org/2000/svg" width="34" height="44"><path fill="#fff" stroke="#fff" d="M16.867 35.081c2.43 0 4.484 2.087 3.311 4.215-.14.253-.291.5-.456.74a9.117 9.117 0 0 1-4.114 3.285 9.404 9.404 0 0 1-5.296.508 9.248 9.248 0 0 1-4.694-2.441A8.847 8.847 0 0 1 3.11 36.82a8.695 8.695 0 0 1 .522-5.153 8.977 8.977 0 0 1 3.376-4.003c.276-.179.56-.343.852-.491 2.167-1.1 4.241.958 4.241 3.388v.12a4.4 4.4 0 0 0 4.4 4.4h.367ZM24.567 18.67c0-2.43 2.073-4.488 4.24-3.388.292.148.577.312.852.491a8.977 8.977 0 0 1 3.377 4.003 8.695 8.695 0 0 1 .521 5.153 8.847 8.847 0 0 1-2.509 4.567 9.248 9.248 0 0 1-4.693 2.44 9.403 9.403 0 0 1-5.296-.507 9.116 9.116 0 0 1-4.114-3.285 8.866 8.866 0 0 1-.457-.74c-1.173-2.128.882-4.215 3.312-4.215h.367a4.4 4.4 0 0 0 4.4-4.4v-.119ZM12.222 19.384c0 2.43-2.028 4.472-4.31 3.636-.868-.319-1.7-.734-2.48-1.24A11.968 11.968 0 0 1 .93 16.443a11.594 11.594 0 0 1-.695-6.871A11.796 11.796 0 0 1 3.58 3.483 12.33 12.33 0 0 1 9.838.228 12.538 12.538 0 0 1 16.9.905c2.233.9 4.142 2.425 5.485 4.38.5.728.913 1.504 1.234 2.312.9 2.257-1.144 4.295-3.574 4.295h-3.423a4.4 4.4 0 0 0-4.4 4.4v3.092Z"/></svg>