<?xml version="1.0" encoding="UTF-8" standalone="no"?>
<svg xmlns="http://www.w3.org/2000/svg" version="1.2" baseProfile="tiny" viewBox="0 0 1749 768">
<g stroke-width="2.00" fill="none" stroke-linecap="butt">
<path stroke="#a6d4f9" vector-effect="non-scaling-stroke" d="
  M 1522.63 225.92
  Q 1523.56 242.40 1522.96 259.25"
/>
<path stroke="#c8b990" vector-effect="non-scaling-stroke" d="
  M 1522.96 259.25
  Q 1491.88 259.46 1460.81 259.76
  C 1447.23 259.89 1435.25 263.16 1427.71 275.38
  C 1426.53 277.28 1425.69 279.89 1424.38 282.09
  Q 1424.12 282.53 1423.69 282.79
  C 1420.97 284.50 1422.26 288.87 1421.75 291.71"
/>
<path stroke="#a6d4f9" vector-effect="non-scaling-stroke" d="
  M 1420.96 471.50
  L 1421.50 472.04"
/>
<path stroke="#c6ab7c" vector-effect="non-scaling-stroke" d="
  M 1421.50 472.04
  C 1423.99 499.30 1439.66 509.54 1465.50 509.31
  Q 1493.97 509.06 1522.06 508.95
  A 1.43 1.42 0.0 0 0 1523.49 507.53
  L 1523.46 431.00"
/>
<path stroke="#c8b990" vector-effect="non-scaling-stroke" d="
  M 1523.46 431.00
  L 1523.21 403.75"
/>
<path stroke="#c6ab7c" vector-effect="non-scaling-stroke" d="
  M 1523.21 403.75
  L 1523.96 385.50"
/>
<path stroke="#c8b990" vector-effect="non-scaling-stroke" d="
  M 1523.96 385.50
  Q 1523.14 377.77 1524.38 369.55"
/>
<path stroke="#a6d4f9" vector-effect="non-scaling-stroke" d="
  M 1524.38 369.55
  Q 1527.31 376.09 1532.49 380.60
  Q 1536.65 384.23 1542.43 385.82
  C 1557.32 389.93 1571.83 387.21 1580.59 374.02
  Q 1582.03 371.85 1583.50 369.71"
/>
<path stroke="#c8b990" vector-effect="non-scaling-stroke" d="
  M 1583.50 369.71
  L 1583.96 370.00"
/>
<path stroke="#c6ab7c" vector-effect="non-scaling-stroke" d="
  M 1583.96 370.00
  L 1584.04 394.25"
/>
<path stroke="#c8b990" vector-effect="non-scaling-stroke" d="
  M 1584.04 394.25
  L 1584.04 428.00"
/>
<path stroke="#c6ab7c" vector-effect="non-scaling-stroke" d="
  M 1584.04 428.00
  L 1584.06 508.19
  A 0.92 0.91 -73.7 0 0 1584.48 508.96
  L 1585.00 509.29"
/>
<path stroke="#a6d4f9" vector-effect="non-scaling-stroke" d="
  M 859.25 765.99
  Q 859.56 765.00 858.44 765.00
  Q 471.77 765.00 85.10 765.00
  A 0.82 0.82 0.0 0 0 84.36 765.47
  Q 84.26 765.69 84.25 765.96"
/>
<path stroke="#a6d4f9" vector-effect="non-scaling-stroke" d="
  M 4.85 703.76
  Q 5.02 661.29 5.01 534.25
  Q 4.99 300.31 5.00 66.37
  C 5.00 64.75 5.90 63.16 4.29 61.50"
/>
<path stroke="#dbb57d" vector-effect="non-scaling-stroke" d="
  M 1744.96 471.25
  Q 1744.64 472.10 1744.70 473.06
  Q 1744.75 473.85 1744.56 473.19
  L 1744.47 472.87
  Q 1744.30 472.25 1744.29 472.89
  C 1744.07 485.43 1739.36 496.88 1728.45 503.70
  Q 1723.48 506.80 1712.79 508.75"
/>
<path stroke="#fd9a14" vector-effect="non-scaling-stroke" d="
  M 1705.76 509.17
  C 1683.65 509.07 1661.26 508.36 1639.22 509.29"
/>
<path stroke="#dbb57d" vector-effect="non-scaling-stroke" d="
  M 1639.22 509.29
  C 1634.55 509.22 1608.54 507.68 1606.50 509.46"
/>
<path stroke="#fd9a14" vector-effect="non-scaling-stroke" d="
  M 1523.46 278.50
  Q 1520.94 279.50 1518.38 280.28
  C 1504.71 284.42 1496.55 294.91 1497.18 309.33
  C 1497.89 325.79 1508.43 334.67 1523.46 338.25"
/>
<path stroke="#fd9a14" vector-effect="non-scaling-stroke" d="
  M 1523.96 385.50
  C 1518.71 380.21 1514.79 391.49 1515.34 394.90
  Q 1516.41 401.40 1523.21 403.75"
/>
<path stroke="#fd9a14" vector-effect="non-scaling-stroke" d="
  M 1523.46 431.00
  L 1523.07 428.53
  A 0.63 0.62 -3.8 0 0 1522.46 428.01
  Q 1490.52 427.30 1458.56 427.48
  C 1444.81 427.55 1434.14 420.86 1426.19 409.78
  Q 1424.29 407.13 1422.03 404.73"
/>
<path stroke="#ddc391" vector-effect="non-scaling-stroke" d="
  M 1628.25 259.04
  L 1627.03 259.68
  Q 1626.58 259.92 1626.07 259.92
  L 1585.68 259.93
  A 0.68 0.67 -20.1 0 1 1585.17 259.70
  L 1584.86 259.37
  A 0.29 0.29 0.0 0 0 1584.35 259.56
  Q 1583.91 301.17 1583.75 341.69
  C 1583.73 348.68 1584.14 360.31 1583.50 369.71"
/>
<path stroke="#ddc391" vector-effect="non-scaling-stroke" d="
  M 1524.38 369.55
  L 1523.46 338.25"
/>
<path stroke="#dbb57d" vector-effect="non-scaling-stroke" d="
  M 1523.46 338.25
  L 1523.46 278.50"
/>
<path stroke="#ddc391" vector-effect="non-scaling-stroke" d="
  M 1523.46 278.50
  L 1522.96 259.25"
/>
<path stroke="#dbb57d" vector-effect="non-scaling-stroke" d="
  M 1421.50 472.04
  Q 1422.82 467.95 1421.21 464.00"
/>
<path stroke="#ddc391" vector-effect="non-scaling-stroke" d="
  M 1725.00 262.79
  Q 1726.04 264.16 1726.58 264.41
  C 1732.44 267.21 1736.03 270.88 1739.10 276.63
  Q 1740.59 279.43 1742.46 282.00"
/>
<path stroke="#ddc391" vector-effect="non-scaling-stroke" d="
  M 1745.50 301.96
  Q 1744.99 302.73 1745.00 304.25
  Q 1745.39 346.46 1744.71 405.50"
/>
<path stroke="#fd9a14" vector-effect="non-scaling-stroke" d="
  M 1744.71 405.50
  C 1743.53 405.49 1742.94 405.77 1742.35 406.84
  Q 1730.48 428.13 1705.74 427.90
  Q 1635.82 427.25 1585.19 427.60
  Q 1584.82 427.60 1584.04 428.00"
/>
<path stroke="#fd9a14" vector-effect="non-scaling-stroke" d="
  M 1584.04 394.25
  L 1585.52 394.11
  Q 1586.01 394.07 1586.47 394.24
  C 1595.17 397.51 1604.87 396.17 1608.64 386.66
  Q 1611.04 380.63 1608.80 374.75
  C 1604.81 364.24 1594.53 363.88 1585.55 368.02
  Q 1584.23 368.63 1583.96 370.00"
/>
<path stroke="#dbb57d" vector-effect="non-scaling-stroke" d="
  M 1745.46 420.25
  L 1745.08 419.85
  A 1.28 1.25 23.9 0 1 1744.73 418.98
  L 1744.71 405.50"
/>
<path stroke="#ddc391" vector-effect="non-scaling-stroke" d="
  M 1639.22 509.29
  Q 1640.37 509.97 1641.75 509.96"
/>
<path stroke="#fd9a14" vector-effect="non-scaling-stroke" d="
  M 1487.83 373.09
  A 13.05 13.05 0.0 0 0 1474.78 360.04
  A 13.05 13.05 0.0 0 0 1461.73 373.09
  A 13.05 13.05 0.0 0 0 1474.78 386.14
  A 13.05 13.05 0.0 0 0 1487.83 373.09"
/>
<path stroke="#fd9a14" vector-effect="non-scaling-stroke" d="
  M 1617.31 291.64
  A 14.84 14.84 0.0 0 0 1602.47 276.80
  A 14.84 14.84 0.0 0 0 1587.63 291.64
  A 14.84 14.84 0.0 0 0 1602.47 306.48
  A 14.84 14.84 0.0 0 0 1617.31 291.64"
/>
<path stroke="#fd9a14" vector-effect="non-scaling-stroke" d="
  M 1721.14 306.44
  A 12.97 12.97 0.0 0 0 1708.17 293.47
  A 12.97 12.97 0.0 0 0 1695.20 306.44
  A 12.97 12.97 0.0 0 0 1708.17 319.41
  A 12.97 12.97 0.0 0 0 1721.14 306.44"
/>
<path stroke="#fd9a14" vector-effect="non-scaling-stroke" d="
  M 1680.49 332.45
  A 24.17 24.17 0.0 0 0 1656.32 308.28
  A 24.17 24.17 0.0 0 0 1632.15 332.45
  A 24.17 24.17 0.0 0 0 1656.32 356.62
  A 24.17 24.17 0.0 0 0 1680.49 332.45"
/>
<path stroke="#fd9a14" vector-effect="non-scaling-stroke" d="
  M 1719.29 406.46
  A 16.73 16.73 0.0 0 0 1702.56 389.73
  A 16.73 16.73 0.0 0 0 1685.83 406.46
  A 16.73 16.73 0.0 0 0 1702.56 423.19
  A 16.73 16.73 0.0 0 0 1719.29 406.46"
/>
</g>
<path fill="#90caf8" d="
  M 1522.63 225.92
  Q 1523.56 242.40 1522.96 259.25
  Q 1491.88 259.46 1460.81 259.76
  C 1447.23 259.89 1435.25 263.16 1427.71 275.38
  C 1426.53 277.28 1425.69 279.89 1424.38 282.09
  Q 1424.12 282.53 1423.69 282.79
  C 1420.97 284.50 1422.26 288.87 1421.75 291.71
  Q 1421.01 292.32 1420.86 293.46
  A 0.54 0.54 0.0 0 1 1420.32 293.94
  C 1383.54 294.44 1346.61 293.04 1309.82 292.71
  Q 1307.65 292.69 1305.54 292.30
  Q 1248.66 281.72 1198.51 253.12
  C 1196.87 252.19 1196.16 250.54 1194.70 249.30
  Q 1171.50 229.54 1148.17 209.93
  C 1142.89 205.50 1137.39 199.71 1131.71 194.90
  Q 1127.47 191.32 1124.20 187.63
  C 1105.76 166.85 1088.72 152.94 1063.18 130.09
  Q 1056.48 124.09 1051.20 120.78
  Q 971.27 70.57 876.25 73.20
  Q 875.62 73.22 875.00 73.22
  Q 515.65 73.01 156.31 72.99
  Q 156.24 72.99 148.33 72.85
  C 111.77 72.16 77.87 90.57 75.06 130.51
  Q 75.01 131.22 75.00 150.50
  Q 74.99 387.84 75.01 625.19
  Q 75.01 638.46 76.30 645.09
  C 84.55 687.43 118.97 696.12 156.43 696.03
  C 217.59 695.89 278.77 696.02 339.91 696.01
  Q 528.93 695.98 717.94 696.02
  C 737.28 696.03 756.81 696.64 776.31 696.25
  C 816.46 695.44 856.84 697.12 896.94 695.29
  C 978.81 691.58 1051.81 659.23 1108.35 601.22
  C 1126.70 582.39 1141.10 562.35 1158.43 546.95
  Q 1237.15 477.00 1342.83 473.10
  Q 1377.53 471.82 1419.65 472.01
  C 1420.16 472.01 1420.54 471.74 1420.96 471.50
  L 1421.50 472.04
  C 1423.99 499.30 1439.66 509.54 1465.50 509.31
  Q 1493.97 509.06 1522.06 508.95
  A 1.43 1.42 0.0 0 0 1523.49 507.53
  L 1523.46 431.00
  L 1523.21 403.75
  L 1523.96 385.50
  Q 1523.14 377.77 1524.38 369.55
  Q 1527.31 376.09 1532.49 380.60
  Q 1536.65 384.23 1542.43 385.82
  C 1557.32 389.93 1571.83 387.21 1580.59 374.02
  Q 1582.03 371.85 1583.50 369.71
  L 1583.96 370.00
  L 1584.04 394.25
  L 1584.04 428.00
  L 1584.06 508.19
  A 0.92 0.91 -73.7 0 0 1584.48 508.96
  L 1585.00 509.29
  Q 1583.82 524.33 1584.62 542.56
  C 1584.94 549.70 1584.12 559.54 1582.38 565.70
  C 1577.55 582.78 1558.18 584.84 1542.99 581.53
  C 1525.46 577.72 1521.26 560.30 1522.91 544.66
  A 0.89 0.89 0.0 0 0 1522.54 543.85
  Q 1521.55 543.15 1519.75 543.14
  Q 1446.25 542.84 1372.75 543.08
  C 1356.53 543.13 1339.46 543.10 1323.81 545.12
  Q 1243.23 555.48 1188.47 616.23
  Q 1176.50 629.51 1164.79 643.05
  Q 1152.83 656.89 1134.99 672.28
  Q 1043.83 750.90 923.40 763.16
  C 899.32 765.61 880.79 765.59 859.25 765.99
  Q 859.56 765.00 858.44 765.00
  Q 471.77 765.00 85.10 765.00
  A 0.82 0.82 0.0 0 0 84.36 765.47
  Q 84.26 765.69 84.25 765.96
  C 70.58 766.35 54.60 766.06 42.23 761.88
  Q 12.68 751.90 5.69 719.04
  Q 4.24 712.22 4.85 703.76
  Q 5.02 661.29 5.01 534.25
  Q 4.99 300.31 5.00 66.37
  C 5.00 64.75 5.90 63.16 4.29 61.50
  C 7.01 25.04 28.58 3.00 65.82 3.00
  Q 475.41 3.00 885.00 3.00
  Q 885.28 3.00 885.44 3.10
  A 0.72 0.70 59.0 0 0 885.85 3.21
  Q 902.79 2.72 917.26 3.99
  C 1012.29 12.38 1098.82 55.28 1163.93 124.56
  C 1176.90 138.36 1194.25 160.96 1213.67 176.82
  Q 1265.16 218.86 1330.93 224.61
  Q 1346.80 226.00 1366.41 225.95
  C 1418.42 225.83 1470.49 226.06 1522.63 225.92
  Z"
/>
<path fill="#bbdefa" d="
  M 4.29 61.50
  C 5.90 63.16 5.00 64.75 5.00 66.37
  Q 4.99 300.31 5.01 534.25
  Q 5.02 661.29 4.85 703.76
  Q 3.50 698.58 3.73 693.40
  Q 3.99 687.51 3.99 687.47
  Q 4.01 375.23 4.24 63.00
  Q 4.24 62.27 4.29 61.50
  Z"
/>
<path fill="#bbdefa" d="
  M 1628.25 259.04
  L 1627.03 259.68
  Q 1626.58 259.92 1626.07 259.92
  L 1585.68 259.93
  A 0.68 0.67 -20.1 0 1 1585.17 259.70
  L 1584.86 259.37
  A 0.29 0.29 0.0 0 0 1584.35 259.56
  Q 1583.91 301.17 1583.75 341.69
  C 1583.73 348.68 1584.14 360.31 1583.50 369.71
  Q 1582.03 371.85 1580.59 374.02
  C 1571.83 387.21 1557.32 389.93 1542.43 385.82
  Q 1536.65 384.23 1532.49 380.60
  Q 1527.31 376.09 1524.38 369.55
  L 1523.46 338.25
  L 1523.46 278.50
  L 1522.96 259.25
  Q 1523.56 242.40 1522.63 225.92
  Q 1523.01 225.07 1522.99 224.25
  Q 1522.63 211.29 1524.21 203.74
  C 1529.37 179.24 1574.33 179.69 1582.62 202.18
  Q 1583.89 205.62 1583.96 212.12
  Q 1584.21 235.22 1584.93 258.36
  A 0.67 0.66 89.1 0 0 1585.59 259.01
  L 1628.25 259.04
  Z"
/>
<path fill="#ffa827" d="
  M 1522.96 259.25
  L 1523.46 278.50
  Q 1520.94 279.50 1518.38 280.28
  C 1504.71 284.42 1496.55 294.91 1497.18 309.33
  C 1497.89 325.79 1508.43 334.67 1523.46 338.25
  L 1524.38 369.55
  Q 1523.14 377.77 1523.96 385.50
  C 1518.71 380.21 1514.79 391.49 1515.34 394.90
  Q 1516.41 401.40 1523.21 403.75
  L 1523.46 431.00
  L 1523.07 428.53
  A 0.63 0.62 -3.8 0 0 1522.46 428.01
  Q 1490.52 427.30 1458.56 427.48
  C 1444.81 427.55 1434.14 420.86 1426.19 409.78
  Q 1424.29 407.13 1422.03 404.73
  L 1421.94 291.92
  A 0.18 0.18 0.0 0 0 1421.84 291.76
  L 1421.75 291.71
  C 1422.26 288.87 1420.97 284.50 1423.69 282.79
  Q 1424.12 282.53 1424.38 282.09
  C 1425.69 279.89 1426.53 277.28 1427.71 275.38
  C 1435.25 263.16 1447.23 259.89 1460.81 259.76
  Q 1491.88 259.46 1522.96 259.25
  Z
  M 1487.83 373.09
  A 13.05 13.05 0.0 0 0 1474.78 360.04
  A 13.05 13.05 0.0 0 0 1461.73 373.09
  A 13.05 13.05 0.0 0 0 1474.78 386.14
  A 13.05 13.05 0.0 0 0 1487.83 373.09
  Z"
/>
<path fill="#ffa827" d="
  M 1628.25 259.04
  Q 1666.00 258.97 1703.75 259.02
  Q 1714.72 259.04 1725.00 262.79
  Q 1726.04 264.16 1726.58 264.41
  C 1732.44 267.21 1736.03 270.88 1739.10 276.63
  Q 1740.59 279.43 1742.46 282.00
  Q 1745.36 291.75 1745.50 301.96
  Q 1744.99 302.73 1745.00 304.25
  Q 1745.39 346.46 1744.71 405.50
  C 1743.53 405.49 1742.94 405.77 1742.35 406.84
  Q 1730.48 428.13 1705.74 427.90
  Q 1635.82 427.25 1585.19 427.60
  Q 1584.82 427.60 1584.04 428.00
  L 1584.04 394.25
  L 1585.52 394.11
  Q 1586.01 394.07 1586.47 394.24
  C 1595.17 397.51 1604.87 396.17 1608.64 386.66
  Q 1611.04 380.63 1608.80 374.75
  C 1604.81 364.24 1594.53 363.88 1585.55 368.02
  Q 1584.23 368.63 1583.96 370.00
  L 1583.50 369.71
  C 1584.14 360.31 1583.73 348.68 1583.75 341.69
  Q 1583.91 301.17 1584.35 259.56
  A 0.29 0.29 0.0 0 1 1584.86 259.37
  L 1585.17 259.70
  A 0.68 0.67 -20.1 0 0 1585.68 259.93
  L 1626.07 259.92
  Q 1626.58 259.92 1627.03 259.68
  L 1628.25 259.04
  Z
  M 1617.31 291.64
  A 14.84 14.84 0.0 0 0 1602.47 276.80
  A 14.84 14.84 0.0 0 0 1587.63 291.64
  A 14.84 14.84 0.0 0 0 1602.47 306.48
  A 14.84 14.84 0.0 0 0 1617.31 291.64
  Z
  M 1721.14 306.44
  A 12.97 12.97 0.0 0 0 1708.17 293.47
  A 12.97 12.97 0.0 0 0 1695.20 306.44
  A 12.97 12.97 0.0 0 0 1708.17 319.41
  A 12.97 12.97 0.0 0 0 1721.14 306.44
  Z
  M 1680.49 332.45
  A 24.17 24.17 0.0 0 0 1656.32 308.28
  A 24.17 24.17 0.0 0 0 1632.15 332.45
  A 24.17 24.17 0.0 0 0 1656.32 356.62
  A 24.17 24.17 0.0 0 0 1680.49 332.45
  Z
  M 1719.29 406.46
  A 16.73 16.73 0.0 0 0 1702.56 389.73
  A 16.73 16.73 0.0 0 0 1685.83 406.46
  A 16.73 16.73 0.0 0 0 1702.56 423.19
  A 16.73 16.73 0.0 0 0 1719.29 406.46
  Z"
/>
<path fill="#bbdefa" d="
  M 1725.00 262.79
  Q 1738.29 268.21 1742.46 282.00
  Q 1740.59 279.43 1739.10 276.63
  C 1736.03 270.88 1732.44 267.21 1726.58 264.41
  Q 1726.04 264.16 1725.00 262.79
  Z"
/>
<circle fill="#fb8c00" cx="1602.47" cy="291.64" r="14.84"/>
<path fill="#fb8c00" d="
  M 1523.46 278.50
  L 1523.46 338.25
  C 1508.43 334.67 1497.89 325.79 1497.18 309.33
  C 1496.55 294.91 1504.71 284.42 1518.38 280.28
  Q 1520.94 279.50 1523.46 278.50
  Z"
/>
<circle fill="#fb8c00" cx="1708.17" cy="306.44" r="12.97"/>
<path fill="#bbdefa" d="
  M 1745.50 301.96
  Q 1745.76 304.25 1745.77 306.56
  Q 1746.02 361.65 1745.79 416.75
  Q 1745.79 418.51 1745.46 420.25
  L 1745.08 419.85
  A 1.28 1.25 23.9 0 1 1744.73 418.98
  L 1744.71 405.50
  Q 1745.39 346.46 1745.00 304.25
  Q 1744.99 302.73 1745.50 301.96
  Z"
/>
<circle fill="#fb8c00" cx="1656.32" cy="332.45" r="24.17"/>
<circle fill="#fb8c00" cx="1474.78" cy="373.09" r="13.05"/>
<path fill="#fb8c00" d="
  M 1584.04 394.25
  L 1583.96 370.00
  Q 1584.23 368.63 1585.55 368.02
  C 1594.53 363.88 1604.81 364.24 1608.80 374.75
  Q 1611.04 380.63 1608.64 386.66
  C 1604.87 396.17 1595.17 397.51 1586.47 394.24
  Q 1586.01 394.07 1585.52 394.11
  L 1584.04 394.25
  Z"
/>
<path fill="#fb8c00" d="
  M 1523.96 385.50
  L 1523.21 403.75
  Q 1516.41 401.40 1515.34 394.90
  C 1514.79 391.49 1518.71 380.21 1523.96 385.50
  Z"
/>
<circle fill="#fb8c00" cx="1702.56" cy="406.46" r="16.73"/>
<path fill="#fb8c00" d="
  M 1422.03 404.73
  Q 1424.29 407.13 1426.19 409.78
  C 1434.14 420.86 1444.81 427.55 1458.56 427.48
  Q 1490.52 427.30 1522.46 428.01
  A 0.63 0.62 -3.8 0 1 1523.07 428.53
  L 1523.46 431.00
  L 1523.49 507.53
  A 1.43 1.42 0.0 0 1 1522.06 508.95
  Q 1493.97 509.06 1465.50 509.31
  C 1439.66 509.54 1423.99 499.30 1421.50 472.04
  Q 1422.82 467.95 1421.21 464.00
  L 1422.03 404.73
  Z"
/>
<path fill="#fb8c00" d="
  M 1744.71 405.50
  L 1744.73 418.98
  A 1.28 1.25 23.9 0 0 1745.08 419.85
  L 1745.46 420.25
  L 1744.96 471.25
  Q 1744.64 472.10 1744.70 473.06
  Q 1744.75 473.85 1744.56 473.19
  L 1744.47 472.87
  Q 1744.30 472.25 1744.29 472.89
  C 1744.07 485.43 1739.36 496.88 1728.45 503.70
  Q 1723.48 506.80 1712.79 508.75
  Q 1709.33 509.89 1705.76 509.17
  C 1683.65 509.07 1661.26 508.36 1639.22 509.29
  C 1634.55 509.22 1608.54 507.68 1606.50 509.46
  Q 1595.75 508.77 1585.00 509.29
  L 1584.48 508.96
  A 0.92 0.91 -73.7 0 1 1584.06 508.19
  L 1584.04 428.00
  Q 1584.82 427.60 1585.19 427.60
  Q 1635.82 427.25 1705.74 427.90
  Q 1730.48 428.13 1742.35 406.84
  C 1742.94 405.77 1743.53 405.49 1744.71 405.50
  Z"
/>
<path fill="#bbdefa" d="
  M 1421.21 464.00
  Q 1422.82 467.95 1421.50 472.04
  L 1420.96 471.50
  L 1421.21 464.00
  Z"
/>
<path fill="#bbdefa" d="
  M 1744.96 471.25
  C 1745.43 491.40 1733.95 507.69 1712.79 508.75
  Q 1723.48 506.80 1728.45 503.70
  C 1739.36 496.88 1744.07 485.43 1744.29 472.89
  Q 1744.30 472.25 1744.47 472.87
  L 1744.56 473.19
  Q 1744.75 473.85 1744.70 473.06
  Q 1744.64 472.10 1744.96 471.25
  Z"
/>
<path fill="#bbdefa" d="
  M 1639.22 509.29
  Q 1640.37 509.97 1641.75 509.96
  L 1606.50 509.46
  C 1608.54 507.68 1634.55 509.22 1639.22 509.29
  Z"
/>
<path fill="#ffa827" d="
  M 1705.76 509.17
  Q 1703.66 509.94 1700.94 509.94
  Q 1671.34 509.95 1641.75 509.96
  Q 1640.37 509.97 1639.22 509.29
  C 1661.26 508.36 1683.65 509.07 1705.76 509.17
  Z"
/>
<path fill="#bbdefa" d="
  M 859.25 765.99
  L 84.25 765.96
  Q 84.26 765.69 84.36 765.47
  A 0.82 0.82 0.0 0 1 85.10 765.00
  Q 471.77 765.00 858.44 765.00
  Q 859.56 765.00 859.25 765.99
  Z"
/>
</svg>
